<?xml version="1.0" encoding="UTF-8" standalone="no"?>
<!-- Created with Inkscape (http://www.inkscape.org/) -->

<svg
   version="1.1"
   id="svg1"
   width="408.95999"
   height="408.95999"
   viewBox="0 0 408.95999 408.95999"
   xmlns="http://www.w3.org/2000/svg"
   xmlns:svg="http://www.w3.org/2000/svg">
  <defs
     id="defs1" />
  <g
     id="g1"
     transform="matrix(1.0613061,0,0,1.0613061,-12.565207,-12.608297)">
    <path
       style="fill:#ffffff"
       d="m 198.4,397.09614 c -9.08378,-0.48894 -15.55657,-0.99525 -18.08,-1.41422 -1.408,-0.23378 -3.856,-0.59952 -5.44,-0.81277 -9.58451,-1.2903 -26.68989,-5.72039 -36,-9.32355 -4.72064,-1.82697 -6.64068,-2.58607 -7.52,-2.97311 -0.528,-0.2324 -2.04,-0.88424 -3.36,-1.44852 -12.44245,-5.31903 -26.28339,-13.40848 -37.727143,-22.04993 -2.005928,-1.51473 -4.355517,-3.28498 -5.221309,-3.9339 -2.50076,-1.87433 -11.838022,-10.2771 -15.596311,-14.03539 -7.827905,-7.8279 -17.578316,-19.5265 -22.3252,-26.78589 -0.489521,-0.74862 -1.472125,-2.18862 -2.183564,-3.2 -3.614445,-5.13827 -12.728445,-21.67721 -14.944209,-27.11887 -0.286658,-0.704 -0.896672,-2.144 -1.355586,-3.2 -1.18452,-2.72568 -2.814644,-6.88512 -4.013146,-10.24 -0.565872,-1.584 -1.218296,-3.384 -1.449832,-4 -0.405442,-1.07867 -1.6233,-5.07251 -2.976162,-9.76 -0.904571,-3.13421 -2.472361,-9.73525 -3.065839,-12.90843 -0.274492,-1.46764 -0.562093,-2.7704 -0.639113,-2.89502 -0.07702,-0.12462 -0.440927,-2.30783 -0.80868,-4.85157 -0.367753,-2.54373 -0.794414,-5.34497 -0.948135,-6.22497 -0.153722,-0.88 -0.443592,-4.048 -0.644155,-7.04 -0.200563,-2.992 -0.503476,-7.39215 -0.673138,-9.7781 -0.422915,-5.94742 -0.390478,-9.08571 0.189997,-18.3819 0.626072,-10.02641 2.096691,-22.36067 3.014145,-25.28 0.165934,-0.528 0.467981,-1.968 0.671216,-3.2 0.346526,-2.10063 2.179973,-9.56462 3.497901,-14.24 2.168038,-7.69118 5.416793,-16.66206 8.739178,-24.13175 3.074404,-6.91215 10.359378,-20.5314 13.051928,-24.40056 0.509936,-0.73278 0.927156,-1.41519 0.927156,-1.51647 0,-0.49951 6.440279,-9.593659 10.303165,-14.54883 8.748095,-11.221744 21.505201,-24.032322 32.615046,-32.751754 2.178983,-1.71015 4.428914,-3.43815 4.999847,-3.84 C 102.74529,42.852049 109.26984,38.840462 118.4,34.233223 c 5.09846,-2.572773 12.48207,-5.925388 15.52,-7.047035 0.88,-0.324909 2.968,-1.103517 4.64,-1.730242 11.93167,-4.472408 24.14465,-7.652575 36.32,-9.457447 2.288,-0.339172 5.024,-0.76012 6.08,-0.935438 5.09874,-0.846499 11.20902,-1.133193 24.16,-1.133585 13.55132,-4.1e-4 18.16186,0.235426 25.28,1.29311 12.81561,1.904272 20.775,3.634569 30.87999,6.713024 5.30188,1.615198 13.98561,4.714967 16.96,6.05409 0.528,0.237714 2.04,0.895475 3.36,1.461689 6.3605,2.728338 17.30855,8.344925 22.24,11.409597 16.06914,9.986232 26.10956,17.986523 38.72579,30.857018 6.54768,6.679632 11.96347,12.968688 16.3349,18.968797 3.47215,4.765772 6.25409,8.730567 6.8715,9.793199 0.35791,0.616 1.4305,2.344 2.38354,3.84 3.46212,5.43453 11.01744,19.64816 12.41712,23.36 0.0996,0.264 0.70399,1.704 1.3432,3.2 2.4429,5.71732 3.1446,7.66668 7.08414,19.68 0.28858,0.88 0.78145,2.608 1.09527,3.84 0.31381,1.232 0.78078,3.032 1.0377,4 0.89056,3.35538 1.81508,7.53369 2.28489,10.32641 0.25966,1.54353 0.54752,2.92844 0.6397,3.07757 0.0922,0.14914 0.45832,2.55825 0.81368,5.35359 0.35535,2.79533 0.78642,6.09043 0.95792,7.32243 1.26171,9.06336 1.25938,32.9611 -0.004,41.92 -0.17375,1.232 -0.53259,3.968 -0.79742,6.08 -0.75023,5.98298 -2.4889,14.52695 -4.73645,23.27536 -1.72805,6.72628 -5.59175,17.75631 -8.99705,25.68463 -5.15514,12.00237 -13.7232,27.10326 -20.33516,35.84 -0.79918,1.056 -1.70652,2.31793 -2.01631,2.80429 -1.08668,1.70603 -7.68047,9.71537 -11.2587,13.67571 -7.80163,8.63474 -21.11927,20.82304 -27.62877,25.28585 -0.64648,0.44321 -2.25542,1.60201 -3.57542,2.57509 -11.98646,8.83624 -29.00558,17.91171 -44.16,23.54838 -3.26132,1.21305 -13.38085,4.52907 -14.50539,4.75321 -0.55803,0.11123 -1.87861,0.46564 -2.93461,0.78758 -6.51394,1.98591 -22.17798,4.8872 -30.23999,5.60105 -3.05966,0.27091 -19.5209,1.13197 -20.64,1.07963 -0.528,-0.0247 -3.048,-0.15728 -5.6,-0.29464 z m -41.78605,-49.214 c 0.0945,-0.15283 1.06994,-0.37948 2.16776,-0.50369 1.09782,-0.1242 2.14505,-0.32096 2.32716,-0.43724 0.18212,-0.11628 0.40313,-0.2207 0.49113,-0.23205 1.18465,-0.15275 7.71124,-3.30238 8.0959,-3.90696 0.14074,-0.22121 0.39857,-0.40221 0.57295,-0.40221 0.43402,0 2.22695,-1.2821 3.02061,-2.16 0.358,-0.396 0.79937,-0.72 0.98083,-0.72 0.32115,0 5.57387,-5.27993 7.16364,-7.20074 1.67378,-2.02233 2.88607,-3.69669 2.88607,-3.98613 0,-0.16573 0.18734,-0.41648 0.41632,-0.55723 0.48002,-0.29505 2.97923,-4.05815 4.10103,-6.175 0.41946,-0.79151 0.83465,-1.51151 0.92265,-1.6 0.7168,-0.72082 7.36,-14.23669 7.36,-14.97423 0,-0.18414 0.20719,-0.74247 0.46042,-1.24073 0.73866,-1.4534 1.45958,-3.21589 1.45958,-3.56836 0,-0.17914 0.24036,-0.80538 0.53414,-1.39164 0.87376,-1.74367 0.97398,-1.99914 1.21533,-3.09799 0.12696,-0.57808 0.43239,-1.43736 0.67871,-1.9095 0.24633,-0.47215 0.44876,-1.09399 0.44984,-1.38187 10e-4,-0.28788 0.21709,-0.93588 0.48,-1.44 0.26292,-0.50412 0.47892,-1.13978 0.48,-1.41258 0.001,-0.2728 0.14126,-0.63528 0.3115,-0.80552 0.17024,-0.17024 0.42649,-0.87246 0.56944,-1.56048 0.28437,-1.36869 0.9282,-1.85065 1.23513,-0.92461 0.10693,0.32264 0.39501,1.04038 0.64017,1.59498 0.24515,0.55459 0.44574,1.2301 0.44574,1.50111 0,0.27101 0.144,0.58175 0.32,0.69052 0.176,0.10878 0.32088,0.44128 0.32197,0.73889 0.001,0.29761 0.21708,0.95357 0.48,1.45769 0.26291,0.50412 0.47891,1.15212 0.48,1.44 0.001,0.28788 0.21708,0.93588 0.48,1.44 0.26291,0.50412 0.47803,1.05836 0.47803,1.23164 0,0.17328 0.19663,0.76882 0.43696,1.32342 0.24034,0.5546 0.99082,2.42271 1.66775,4.15134 0.67692,1.72864 1.34428,3.21314 1.48303,3.29889 0.13874,0.0858 0.25226,0.37232 0.25226,0.63684 0,1.40226 6.35407,13.77098 10.00007,19.46597 3.23629,5.05501 9.17427,11.78875 12.99398,14.73532 0.91262,0.704 1.89709,1.49509 2.18773,1.75797 1.08136,0.97809 8.62564,4.7851 9.85821,4.97467 0.176,0.0271 0.536,0.14002 0.8,0.25099 3.19534,1.34316 14.97925,1.25138 17.77774,-0.13847 0.36176,-0.17967 0.79376,-0.29446 0.96,-0.25511 0.29506,0.0699 0.92735,-0.12497 2.22226,-0.68474 0.352,-0.15217 1.576,-0.65776 2.72,-1.12354 2.89057,-1.1769 7.52477,-3.74355 9.64479,-5.34177 0.64202,-0.484 1.27576,-0.88 1.40831,-0.88 0.13254,0 0.85605,-0.504 1.6078,-1.12 0.75175,-0.616 1.4733,-1.12 1.60346,-1.12 0.13015,0 1.35298,-1.008 2.7174,-2.24 1.36442,-1.232 2.60723,-2.24 2.7618,-2.24 0.73859,0 14.05486,-14.23433 14.46294,-15.46006 0.0696,-0.20896 0.53757,-0.90466 1.04,-1.54599 0.50242,-0.64132 0.9135,-1.26293 0.9135,-1.38135 0,-0.11841 0.32437,-0.67369 0.72081,-1.23395 1.12825,-1.59446 1.46288,-2.17385 2.34409,-4.05865 1.53373,-3.28043 1.7351,-3.77595 1.7351,-4.26947 0,-0.27102 0.12768,-0.57166 0.28373,-0.66811 0.15605,-0.0964 0.38493,-0.71694 0.50863,-1.37888 0.1237,-0.66195 0.36337,-1.37113 0.53259,-1.57597 0.16922,-0.20484 0.39361,-1.39749 0.49864,-2.65034 0.10503,-1.25284 0.31369,-2.35374 0.46369,-2.44645 0.35593,-0.21997 0.35589,-5.80161 -4e-5,-6.02158 -0.15002,-0.0927 -0.36215,-1.1258 -0.4714,-2.29574 -0.10925,-1.16994 -0.32988,-2.29057 -0.49029,-2.49031 -0.1604,-0.19973 -0.39682,-0.8544 -0.52537,-1.45483 -0.32046,-1.49678 -2.67225,-5.95702 -4.34051,-8.23192 -1.50073,-2.04643 -6.35732,-7.1564 -6.80156,-7.1564 -0.15182,0 -1.03452,-0.648 -1.96157,-1.44 -0.92704,-0.792 -1.78762,-1.44 -1.91239,-1.44 -0.12477,0 -0.69303,-0.35557 -1.2628,-0.79016 -1.25325,-0.9559 -3.69616,-2.32448 -6.92135,-3.87752 -3.96099,-1.90735 -5.01332,-2.37232 -5.36911,-2.37232 -0.18646,0 -0.81869,-0.24036 -1.40495,-0.53414 -1.8658,-0.93496 -2.08409,-1.01775 -3.27008,-1.24024 -0.63961,-0.11999 -1.23409,-0.33331 -1.32107,-0.47405 -0.087,-0.14073 -0.73263,-0.35294 -1.43479,-0.47157 -0.70215,-0.11862 -1.35531,-0.34298 -1.45147,-0.49856 -0.0962,-0.15559 -0.88891,-0.37761 -1.76168,-0.49338 -0.87276,-0.11578 -1.58685,-0.3174 -1.58685,-0.44806 0,-0.13065 -0.74772,-0.33673 -1.66161,-0.45796 -0.91389,-0.12124 -1.81389,-0.31979 -2,-0.44123 -0.18611,-0.12144 -1.20239,-0.37762 -2.25839,-0.56928 -1.41331,-0.25652 -1.76593,-0.41575 -1.3362,-0.60337 0.32854,-0.14344 1.09806,-0.0884 1.76,0.12595 2.22956,0.72191 22.18176,0.0359 24.3762,-0.83809 0.264,-0.10514 0.81163,-0.15846 1.21695,-0.11847 0.40531,0.04 0.90931,-0.0645 1.12,-0.23222 0.33606,-0.26751 1.1639,-0.47958 3.17654,-0.81373 0.30441,-0.0505 0.65241,-0.19082 0.77333,-0.31174 0.12092,-0.12092 0.55294,-0.21986 0.96004,-0.21986 0.6548,0 1.32714,-0.20225 3.79314,-1.14107 0.352,-0.13401 0.712,-0.25775 0.8,-0.27499 0.41365,-0.081 2.55815,-0.96165 4,-1.64257 0.88,-0.41558 1.96,-0.9035 2.4,-1.08425 0.44,-0.18075 1.664,-0.83218 2.72,-1.44761 1.056,-0.61544 2.172,-1.21014 2.48,-1.32156 0.308,-0.11143 0.56,-0.32979 0.56,-0.48527 0,-0.15547 0.19369,-0.28268 0.43041,-0.28268 0.23672,0 0.69104,-0.288 1.00959,-0.64 0.31856,-0.352 0.70695,-0.64 0.86311,-0.64 0.31669,0 0.21666,0.0757 3.26672,-2.47322 3.221,-2.69182 7.87017,-7.62011 7.87017,-8.34267 0,-0.19376 0.18042,-0.46746 0.40093,-0.6082 0.9049,-0.57757 2.47635,-3.18328 4.88248,-8.0959 0.99132,-2.024 1.92625,-3.91428 2.07761,-4.20061 0.15136,-0.28633 0.37338,-1.04392 0.49337,-1.68353 0.11999,-0.63962 0.33331,-1.2341 0.47405,-1.32108 0.14073,-0.087 0.35669,-0.76938 0.4799,-1.51646 0.12321,-0.74708 0.34468,-1.50857 0.49216,-1.69221 0.14747,-0.18364 0.36652,-1.33564 0.48678,-2.56 0.12026,-1.22436 0.32863,-2.37011 0.46305,-2.54611 0.13442,-0.176 0.34836,-1.76 0.47541,-3.52 0.12705,-1.76 0.32173,-3.344 0.43263,-3.52 0.20357,-0.32307 0.66332,-4.4532 1.44266,-12.96 0.23379,-2.552 0.46838,-4.64 0.52129,-4.64 0.0529,0 0.29215,-2.376 0.53164,-5.28 0.23948,-2.904 0.65251,-7.872 0.91783,-11.04 1.11847,-13.35486 1.47008,-18.29718 1.77569,-24.96 0.17761,-3.872 0.47123,-7.544 0.65251,-8.16 0.475,-1.61409 -0.32812,-13.73725 -0.96226,-14.52534 -0.15695,-0.19507 -0.38829,-0.97843 -0.51409,-1.74082 -0.1258,-0.76238 -0.4292,-1.77038 -0.67421,-2.24 -0.24502,-0.46961 -0.44637,-1.01084 -0.44746,-1.20273 -0.003,-0.59615 -1.95537,-4.29111 -2.26694,-4.29111 -0.16227,0 -0.29503,-0.1977 -0.29503,-0.43932 0,-0.24163 -1.07503,-1.4605 -2.38896,-2.7086 -2.59913,-2.46892 -5.7223,-4.189214 -8.09838,-4.460727 -0.75204,-0.08593 -1.44454,-0.281145 -1.53889,-0.4338 -0.22216,-0.359456 -9.00256,-0.364017 -9.22457,-0.0048 -0.0927,0.15002 -1.1258,0.36215 -2.29574,0.471401 -1.16994,0.10925 -2.29058,0.33303 -2.49031,0.497288 -0.19973,0.164259 -1.04715,0.400478 -1.88315,0.524928 -0.836,0.12446 -1.52,0.35394 -1.52,0.50995 0,0.15602 -0.324,0.28855 -0.72,0.29453 -0.396,0.006 -1.296,0.28908 -2,0.62914 -0.704,0.34005 -1.44671,0.62317 -1.65046,0.62914 -0.20376,0.006 -1.06776,0.36147 -1.92,0.79 -2.26416,1.13847 -4.50514,2.10086 -4.89198,2.10086 -0.18566,0 -0.33756,0.1272 -0.33756,0.28268 0,0.15547 -0.252,0.36534 -0.56,0.46637 -0.7684,0.25206 -4.31821,2.2352 -5.47346,3.05781 -0.51993,0.37023 -1.04638,0.67314 -1.16989,0.67314 -0.1235,0 -0.76999,0.432 -1.43665,0.96 -0.66665,0.528 -1.31465,0.96 -1.44,0.96 -0.12534,0 -0.77334,0.432 -1.44,0.96 -0.66665,0.528 -1.30777,0.96 -1.42471,0.96 -0.27121,0 -3.07368,2.16459 -6.03385,4.66045 -1.26579,1.06724 -2.54292,2.07524 -2.83807,2.24 -1.55669,0.86895 -15.67812,14.31986 -18.3528,17.48137 -0.69881,0.826 -2.99857,3.37484 -5.11057,5.66408 -2.112,2.28924 -4.96257,5.50142 -6.3346,7.13818 -3.70494,4.41978 -6.6835,8.05415 -7.5854,9.25552 -0.44,0.5861 -1.268,1.59042 -1.83999,2.2318 -0.572,0.64139 -1.04,1.2705 -1.04,1.39803 0,0.12752 -0.65014,1.04607 -1.44474,2.04121 -3.30612,4.14052 -4.31526,5.49737 -4.31526,5.80212 0,0.177 -0.288,0.50167 -0.64,0.7215 -0.352,0.21983 -0.64,0.51749 -0.64,0.66148 0,0.30657 -1.96786,2.89442 -2.32,3.05092 -0.132,0.0587 -0.24,0.28835 -0.24,0.51041 0,0.22205 -0.288,0.66437 -0.64,0.98293 -0.352,0.31855 -0.64,0.76087 -0.64,0.98293 0,0.22205 -0.108,0.45173 -0.24,0.5104 -0.36434,0.16192 -1.68,2.11484 -1.68,2.49371 0,0.18313 -0.13615,0.33296 -0.30254,0.33296 -0.1664,0 -0.4904,0.35124 -0.72,0.78055 -0.22961,0.4293 -1.56946,2.48111 -2.97746,4.55958 -1.408,2.07846 -2.61693,3.92322 -2.6865,4.09945 -0.0696,0.17623 -0.50789,0.82442 -0.97405,1.44042 -0.46616,0.616 -1.02694,1.48 -1.24618,1.92 -0.48706,0.9775 -0.97389,1.79584 -1.81327,3.04801 -1.04262,1.55534 -1.4231,2.18686 -1.82673,3.03199 -0.21014,0.44 -0.6768,1.232 -1.03701,1.76 -0.79641,1.16735 -1.24666,1.97824 -2.88293,5.19209 -0.69667,1.36835 -1.43561,2.70391 -1.6421,2.96791 -0.20648,0.264 -0.83907,1.38 -1.40576,2.48 -0.56668,1.1 -1.12868,2 -1.24887,2 -0.1202,0 -0.64025,-0.9 -1.15566,-2 -0.51542,-1.1 -1.01448,-2.07211 -1.10903,-2.16025 -0.0945,-0.0881 -0.43746,-0.66413 -0.76202,-1.28 -0.32456,-0.61586 -0.78448,-1.47975 -1.02205,-1.91975 -0.45325,-0.83945 -3.86474,-6.73885 -4.5337,-7.84 -0.21384,-0.352 -0.57349,-1 -0.79921,-1.44 -0.22573,-0.44 -0.52632,-0.944 -0.66798,-1.12 -0.86376,-1.07314 -4.38412,-6.78869 -4.3854,-7.12 -8.6e-4,-0.22 -0.15007,-0.4 -0.3316,-0.4 -0.18152,0 -0.42145,-0.252 -0.53316,-0.56 -0.11172,-0.308 -0.58728,-1.064 -1.05679,-1.68 -0.46952,-0.616 -0.94868,-1.336 -1.0648,-1.6 -0.3778,-0.85893 -1.00644,-1.7544 -1.4152,-2.0159 -0.22,-0.14075 -0.4,-0.40803 -0.4,-0.59396 0,-0.18592 -0.468,-0.92774 -1.04,-1.64847 -0.572,-0.72074 -1.184,-1.56045 -1.36,-1.86603 -0.56808,-0.98634 -4.43934,-6.39216 -5.84,-8.15497 -0.748,-0.9414 -1.36,-1.80614 -1.36,-1.92165 0,-0.11551 -0.648,-0.96851 -1.44,-1.89556 -0.792,-0.92705 -1.44,-1.77491 -1.44,-1.88414 0,-0.10923 -0.756,-1.12457 -1.68,-2.25632 -0.924,-1.13174 -2.616,-3.23115 -3.76,-4.66535 -12.01659,-15.06484 -26.35892,-30.15831 -36.69094,-38.61255 -5.40123,-4.41959 -6.8021,-5.5251 -7.00119,-5.5251 -0.11009,0 -0.81523,-0.504 -1.56697,-1.12 -0.75175,-0.616 -1.47526,-1.12 -1.60781,-1.12 -0.13255,0 -0.78644,-0.432 -1.45309,-0.96 -0.66666,-0.528 -1.30899,-0.96 -1.4274,-0.96 -0.11842,0 -0.6737,-0.32436 -1.23395,-0.72081 -1.39634,-0.98805 -2.15892,-1.4571 -3.09865,-1.90591 -0.44,-0.21014 -1.16,-0.62437 -1.6,-0.9205 -0.98496,-0.66291 -5.83817,-3.17117 -6.13768,-3.17211 -0.11972,-3.7e-4 -1.12772,-0.42039 -2.24,-0.93338 -1.89118,-0.87222 -5.693248,-2.26052 -6.57306,-2.40011 -0.214906,-0.0341 -0.490906,-0.16216 -0.613333,-0.28459 -0.122428,-0.12242 -0.630596,-0.22259 -1.129262,-0.22259 -0.498667,0 -0.906667,-0.12713 -0.906667,-0.282512 0,-0.908517 -12.304735,-1.507113 -15.415696,-0.749937 -1.370525,0.333571 -4.454281,1.687199 -6.294542,2.763019 -1.959207,1.14536 -4.807947,4.65561 -6.256846,7.70975 -0.333896,0.70382 -0.720045,1.51395 -0.858109,1.80028 -0.138064,0.28634 -0.3492,1.04393 -0.469192,1.68354 -0.119992,0.63961 -0.334543,1.23485 -0.476781,1.32276 -0.142238,0.0879 -0.359403,1.13032 -0.48259,2.31646 -0.123187,1.18615 -0.385924,2.35809 -0.58386,2.60431 -0.466278,0.58003 -0.407338,18.06115 0.06419,19.03932 0.178435,0.37015 0.475385,3.55301 0.659888,7.07301 0.48902,9.32964 1.123571,17.87237 1.354861,18.24 0.11073,0.176 0.305913,2.68626 0.43374,5.57836 0.127827,2.89211 0.351467,5.48411 0.496978,5.76 0.14551,0.2759 0.413652,2.51764 0.59587,4.98164 0.547343,7.40133 1.139573,13.42016 1.353931,13.76 0.111015,0.176 0.306249,1.904 0.433852,3.84 0.127603,1.936 0.324773,3.664 0.438154,3.84 0.113382,0.176 0.37447,1.616 0.580195,3.2 0.468768,3.60931 1.066261,6.62257 1.395946,7.04 0.139005,0.176 0.353947,0.86159 0.477648,1.52353 0.123702,0.66194 0.352588,1.28244 0.508636,1.37889 0.156048,0.0964 0.283723,0.39709 0.283723,0.6681 0,1.5549 4.266146,9.52072 7.744089,14.45989 1.235558,1.75467 7.267476,7.80493 8.835298,8.86216 0.649337,0.43787 2.188613,1.50573 3.420613,2.37302 3.00556,2.11582 10.656076,5.91135 13.280006,6.58839 0.41191,0.10629 1.49145,0.53989 1.9606,0.78748 0.28634,0.15112 1.07834,0.37552 1.76,0.49867 0.68167,0.12316 1.37613,0.30326 1.54324,0.40023 0.16711,0.097 0.59911,0.2087 0.96,0.24828 0.36089,0.0396 1.23216,0.24134 1.93616,0.44836 1.81402,0.53343 2.46044,0.6382 6.24,1.01137 1.848,0.18247 3.648,0.4671 4,0.63252 0.74204,0.34872 17.0597,0.18364 18.64,-0.18858 0.63002,-0.14839 1.04,-0.12189 1.04,0.0672 0,0.1717 -0.828,0.46549 -1.84,0.65286 -2.7939,0.51728 -4.96915,1.03357 -5.68,1.34813 -0.352,0.15576 -1.252,0.37602 -2,0.48946 -0.748,0.11345 -1.36,0.32126 -1.36,0.46181 0,0.14054 -0.64465,0.35221 -1.43254,0.47036 -0.7879,0.11815 -1.50866,0.33797 -1.60168,0.48849 -0.093,0.15052 -0.74438,0.37085 -1.44746,0.48964 -0.70308,0.11878 -1.27832,0.34731 -1.27832,0.50784 0,0.16053 -0.252,0.29276 -0.56,0.29385 -0.308,0.001 -0.97246,0.21708 -1.47658,0.48 -0.50412,0.26291 -1.03128,0.47802 -1.17148,0.47802 -0.14019,0 -1.31173,0.48712 -2.60342,1.08248 -1.29169,0.59536 -2.49252,1.13536 -2.66852,1.2 -0.40582,0.14904 -5.4788,3.01477 -6.6127,3.73552 -3.28534,2.08827 -5.0157,3.49347 -8.13208,6.60394 -3.6532,3.64629 -5.393935,5.97001 -6.965314,9.29806 -0.498602,1.056 -1.110033,2.32807 -1.358737,2.82682 -0.248703,0.49875 -0.543618,1.50675 -0.655368,2.24 -0.111749,0.73325 -0.360602,1.5318 -0.553007,1.77455 -0.478979,0.60431 -0.476003,10.9982 0.0033,11.59727 0.194231,0.24275 0.456789,1.16136 0.583461,2.04136 0.126673,0.88 0.340982,1.744 0.476243,1.92 0.13526,0.176 0.346681,0.752 0.469825,1.28 0.203729,0.87353 1.645502,4.19978 2.491398,5.7478 0.188678,0.34528 0.684465,1.2699 1.101749,2.0547 0.417283,0.78481 1.11702,1.89669 1.55495,2.47086 0.43794,0.57417 0.79626,1.13889 0.79626,1.25493 0,0.35375 2.26582,3.25194 4.83028,6.17839 2.73273,3.11845 12.13467,12.32455 13.39124,13.11229 0.45016,0.28221 1.63003,1.20339 2.62193,2.04707 0.9919,0.84368 1.90718,1.53396 2.03395,1.53396 0.12677,0 0.77594,0.432 1.4426,0.96 0.66665,0.528 1.31465,0.96 1.44,0.96 0.12534,0 0.75262,0.40574 1.39395,0.90164 1.19137,0.92121 8.01048,4.35311 10.60605,5.33778 0.792,0.30045 1.69785,0.68038 2.01301,0.84427 0.31516,0.1639 0.71747,0.20872 0.89402,0.0996 0.17655,-0.10911 0.49469,-0.0559 0.70698,0.11832 0.21229,0.17419 1.24999,0.42015 2.30599,0.54657 1.056,0.12642 2.136,0.35192 2.4,0.50111 0.63468,0.35866 8.55306,0.37027 8.77395,0.0129 z"
       id="path1" />
  </g>
</svg>
